# xmcd CD database file
# Copyright (C) 1997 Ti Kan
#
# Track frame offsets:
#  150
#  28057
#  47822
#  67172
#  89150
#  117210
#  137112
#  156275
#  181217
#  197167
#  218407
#  236750
#
# Disc length: 3403 seconds
#
# Revision: 1
# Processed by: cddbd v1.4b41PL1 Copyright (c) Steve Scherf et al.
# Submitted via: CDWizzard Release:4.32
#
DISCID=b20d490c
DTITLE=Barbra Streisand - Higher Ground
DYEAR=1900
DGENRE=
TTITLE0=I Believe/You'll Never Walk Alone
TTITLE1=Higher Ground
TTITLE2=At the Same Time
TTITLE3=Tell Him (duet with Celine Dion)
TTITLE4=On Holy Ground
TTITLE5=If I Could
TTITLE6=Circle
TTITLE7=The Water is Wide/Deep River
TTITLE8=Leading with Your Heart
TTITLE9=Lessons to be Learned
TTITLE10=Everything Must Change
TTITLE11=Avinu Malkeinu
EXTD=
EXTT0=Richard O'Brien
EXTT1=
EXTT2=
EXTT3=Barbra Streisand and Celine Dion 
EXTT4=
EXTT5=
EXTT6=
EXTT7=
EXTT8=
EXTT9=
EXTT10=
EXTT11=
PLAYORDER=
